<svg width="110" height="110" viewBox="0 0 110 110" fill="none" xmlns="http://www.w3.org/2000/svg">
<g clip-path="url(#clip0_10_461)">
<path d="M73.3002 0.238098C70.218 0.238098 67.72 2.73706 67.72 5.81921C67.72 8.90135 70.218 11.3994 73.3002 11.3994C76.3823 11.3994 78.8813 8.90135 78.8813 5.81921C78.8813 2.73706 76.3823 0.238098 73.3002 0.238098ZM73.3002 7.67958C72.2728 7.67958 71.4398 6.84659 71.4398 5.81921C71.4398 4.79182 72.2728 3.95884 73.3002 3.95884C74.3276 3.95884 75.1606 4.79182 75.1606 5.81921C75.1606 6.84659 74.3276 7.67958 73.3002 7.67958Z" fill="#F5F4F4"/>
<path d="M56.5579 9.53992C51.421 9.53992 47.257 13.7039 47.257 18.8409C47.257 23.9778 51.421 28.1427 56.5579 28.1427C61.6948 28.1427 65.8597 23.9778 65.8597 18.8409C65.8534 13.7067 61.6921 9.54537 56.5579 9.53992ZM56.5579 24.422C53.4757 24.422 50.9768 21.923 50.9768 18.8409C50.9768 15.7587 53.4757 13.2597 56.5579 13.2597C59.64 13.2597 62.139 15.7587 62.139 18.8409C62.139 21.923 59.64 24.422 56.5579 24.422Z" fill="#F5F4F4"/>
<path d="M30.5145 13.2598C26.4049 13.2598 23.073 16.5917 23.073 20.7012C23.073 24.8108 26.4049 28.1427 30.5145 28.1427C34.624 28.1427 37.955 24.8108 37.955 20.7012C37.955 16.5917 34.624 13.2598 30.5145 13.2598ZM30.5145 24.422C28.4588 24.422 26.7937 22.756 26.7937 20.7012C26.7937 18.6465 28.4588 16.9805 30.5145 16.9805C32.5692 16.9805 34.2343 18.6465 34.2343 20.7012C34.2343 22.756 32.5683 24.422 30.5145 24.422Z" fill="#F5F4F4"/>
<path d="M19.3522 0.238098C16.27 0.238098 13.772 2.73706 13.772 5.81921C13.772 8.90135 16.27 11.3994 19.3522 11.3994C22.4343 11.3994 24.9333 8.90135 24.9333 5.81921C24.9333 2.73706 22.4343 0.238098 19.3522 0.238098ZM19.3522 7.67958C18.3248 7.67958 17.4918 6.84659 17.4918 5.81921C17.4918 4.79182 18.3248 3.95884 19.3522 3.95884C20.3796 3.95884 21.2125 4.79182 21.2125 5.81921C21.2125 6.84659 20.3796 7.67958 19.3522 7.67958Z" fill="#F5F4F4"/>
<path d="M64.5125 60.0016L68.0324 58.8043L80.0649 94.1677L76.544 95.3649L64.5125 60.0016Z" fill="#F5F4F4"/>
<path d="M54.9954 63.229L58.5153 62.0309L70.5478 97.3943L67.0269 98.5924L54.9954 63.229Z" fill="#F5F4F4"/>
<path d="M74.0288 56.7568L77.5497 55.5596L89.5776 90.9229L86.0576 92.1202L74.0288 56.7568Z" fill="#F5F4F4"/>
<path d="M109.437 68.99L100.646 43.1456C98.7832 37.6662 92.8315 34.7349 87.3521 36.598C87.3512 36.5989 87.3503 36.5989 87.3494 36.5989L82.3078 38.3139L81.9826 37.3547C79.6127 30.3728 72.0322 26.6339 65.0513 29.0039C62.5387 29.8559 60.3377 31.4374 58.7289 33.5467C55.4742 33.3033 52.2958 34.6141 50.1583 37.0812C49.7568 36.9495 49.3471 36.8469 48.9311 36.7724C47.5558 36.5335 46.1469 36.5716 44.7861 36.8841C39.4594 31.7844 31.0087 31.9688 25.909 37.2956C24.0786 39.2078 22.8569 41.6222 22.4018 44.2302L22.2264 45.2294L16.9805 44.312C11.2795 43.3146 5.8501 47.127 4.85178 52.8281V52.8299L0.156346 79.718C-0.832883 85.419 2.97869 90.8448 8.67608 91.8477L13.9202 92.7642L13.753 93.7208C11.2077 94.3148 9.62625 96.8601 10.2203 99.4054C10.6527 101.255 12.1488 102.667 14.021 102.993L53.6447 109.922C53.9145 109.97 54.187 109.994 54.4595 109.994C56.309 109.986 57.9841 108.903 58.7498 107.219C59.5774 107.408 60.4421 107.36 61.2442 107.081L99.33 94.1241C101.805 93.282 103.129 90.5923 102.287 88.1169C101.676 86.322 100.054 85.0648 98.1637 84.9213L97.8512 84.0047L102.89 82.2897C108.366 80.4193 111.293 74.4703 109.437 68.99ZM79.0676 40.3142L79.7199 42.2336L66.9198 46.5884L66.2612 44.669L79.0676 40.3142ZM48.1108 41.7331C48.8948 41.4669 49.7214 41.3488 50.5489 41.3861C51.2293 41.4197 51.8715 41.0763 52.2213 40.4931L52.2276 40.4949C53.6874 38.0786 56.4988 36.8296 59.2703 37.3656C60.0243 37.51 60.79 37.1775 61.1979 36.5262C62.3625 34.6531 64.142 33.2433 66.2313 32.5366C70.5879 31.0605 75.3805 32.8672 77.6778 36.8523L63.2945 41.7467C62.3243 42.0801 61.8074 43.1365 62.139 44.1076L64.9141 52.2685C65.3047 53.5639 64.5698 54.9301 63.2745 55.3207C62.0436 55.6913 60.7355 55.0472 60.2786 53.8455L59.3484 51.1258C59.0496 50.1429 58.0095 49.5888 57.0266 49.8885C56.0437 50.1883 55.4896 51.2275 55.7894 52.2104C55.8012 52.2494 55.8139 52.2876 55.8285 52.3257C56.2409 53.6147 55.5296 54.9936 54.2406 55.4051C52.9843 55.8067 51.6354 55.1408 51.1893 53.899L49.329 48.4578C48.9974 47.4868 47.9419 46.9672 46.9699 47.2969L43.568 48.4542C43.4154 45.452 45.2676 42.7114 48.1108 41.7331ZM47.0689 53.3495L45.1486 54.0017L44.4982 52.0823L46.4158 51.431L47.0689 53.3495ZM37.222 37.0385L37.2275 37.0404C39.4058 37.4128 41.3852 38.531 42.8295 40.2024C42.9267 40.3078 43.0375 40.4014 43.1565 40.4813C41.7067 41.8403 40.6703 43.5816 40.167 45.5047L26.5867 43.0729C28.2399 38.7835 32.6919 36.2573 37.222 37.0385ZM25.7519 46.721L39.8845 49.2472C39.9581 49.9503 40.1043 50.6434 40.3196 51.3156L25.404 48.7113L25.7519 46.721ZM9.3074 88.1824C5.63572 87.5301 3.18399 84.0319 3.82077 80.3584L8.52529 53.4685C9.1657 49.7932 12.6639 47.3323 16.3392 47.9728C16.3428 47.9737 16.3465 47.9737 16.3501 47.9746L21.5924 48.8902L21.2445 50.8878L17.4156 50.2183C14.0592 49.6306 10.8616 51.8761 10.2739 55.2326C10.273 55.2353 10.273 55.238 10.2721 55.2407L6.06447 79.3002C5.47947 82.6585 7.72863 85.856 11.0869 86.4419L14.9158 87.1114L14.5679 89.1089L9.3074 88.1824ZM20.6022 54.5531L15.5516 83.4388L11.7201 82.7693C10.3884 82.5358 9.49726 81.2668 9.73071 79.9351C9.73071 79.9351 9.73162 79.9351 9.73162 79.9342L13.9393 55.8739C14.1763 54.5431 15.4426 53.6547 16.7743 53.8827L20.6022 54.5531ZM55.4615 105.433C55.3643 105.984 54.8383 106.353 54.2869 106.256V106.259L14.6623 99.3273C14.1082 99.2501 13.7212 98.7378 13.7985 98.1837C13.8766 97.6286 14.3889 97.2417 14.943 97.3198C14.9666 97.3225 14.9893 97.327 15.0121 97.3316C16.0249 97.5078 16.9878 96.8311 17.1649 95.8191L24.7663 52.3612L41.6758 55.3188L54.6403 93.4383L53.1242 102.105C53.0388 102.591 53.1505 103.091 53.4349 103.495C53.7192 103.898 54.1516 104.173 54.6385 104.257C55.1899 104.354 55.5587 104.88 55.4615 105.433ZM98.7659 89.316C98.9467 89.8447 98.6651 90.4197 98.1364 90.6005C98.1355 90.6005 98.1355 90.6014 98.1355 90.6014L60.0497 103.559C59.5192 103.741 58.9433 103.459 58.7616 102.928C58.58 102.398 58.8625 101.822 59.393 101.64C60.3658 101.309 60.8863 100.253 60.5557 99.2801V99.2792L46.3486 57.5144L48.5659 56.7605C50.5716 59.501 54.4186 60.0969 57.1583 58.0912C57.4917 57.8478 57.7996 57.5707 58.0776 57.2646C58.5909 57.8124 59.1977 58.262 59.8708 58.5936C62.9284 60.0979 66.6273 58.8388 68.1325 55.7812C68.8547 54.3133 68.9646 52.6191 68.4377 51.0703L68.1107 50.112L80.9126 45.7554L95.1215 87.5201C95.4521 88.493 96.5077 89.0144 97.4815 88.6847C97.4824 88.6838 97.4833 88.6838 97.4842 88.6829C98.012 88.5057 98.5852 88.7882 98.7659 89.316ZM85.3609 47.2733L89.0399 46.0215C90.3198 45.5855 91.7114 46.2695 92.1475 47.5494C92.1475 47.5504 92.1484 47.5522 92.1484 47.554L100.016 70.676C100.45 71.9568 99.7652 73.3475 98.4852 73.7845L94.8054 75.0362L85.3609 47.2733ZM101.695 78.7606L96.6567 80.4756L95.9963 78.5562L99.677 77.3035C102.901 76.2017 104.624 72.6999 103.53 69.4742L95.6611 46.3504C94.5583 43.1292 91.0583 41.406 87.8326 42.4961L84.1537 43.7479L83.5024 41.8303L88.5548 40.1225C92.0902 38.9198 95.9309 40.8101 97.1345 44.3456L105.919 70.1845C107.116 73.7182 105.226 77.5543 101.695 78.7606Z" fill="#F2F2F2"/>
<path d="M33.0507 100.069L39.4866 63.2754L43.1519 63.9167L36.7151 100.711L33.0507 100.069Z" fill="#F5F4F4"/>
<path d="M42.9729 101.812L46.581 79.9288L50.2509 80.5338L46.6419 102.417L42.9729 101.812Z" fill="#F5F4F4"/>
<path d="M23.1628 98.329L29.5987 61.5313L33.2641 62.1717L26.8273 98.9694L23.1628 98.329Z" fill="#F5F4F4"/>
</g>
<defs>
<clipPath id="clip0_10_461">
<rect width="110" height="110" fill="white"/>
</clipPath>
</defs>
</svg>
