<svg width="110" height="110" viewBox="0 0 110 110" fill="none" xmlns="http://www.w3.org/2000/svg">
<path d="M24.0625 68.75C25.0117 68.75 25.7812 67.9805 25.7812 67.0312C25.7812 66.082 25.0117 65.3125 24.0625 65.3125C23.1133 65.3125 22.3438 66.082 22.3438 67.0312C22.3438 67.9805 23.1133 68.75 24.0625 68.75Z" fill="#F2F2F2"/>
<path d="M91.7812 55.8594C91.5735 55.7632 91.3487 55.7095 91.12 55.7014C90.8912 55.6932 90.6631 55.7309 90.4491 55.8121C90.2351 55.8933 90.0395 56.0165 89.8737 56.1744C89.708 56.3322 89.5754 56.5216 89.4838 56.7314C89.3923 56.9411 89.3435 57.1671 89.3404 57.396C89.3374 57.6248 89.38 57.852 89.466 58.0642C89.5519 58.2764 89.6793 58.4692 89.8408 58.6315C90.0023 58.7937 90.1945 58.9221 90.4062 59.009C91.8539 59.641 93.0398 60.7522 93.7646 62.1557C94.4894 63.5592 94.7089 65.1694 94.3862 66.7157C94.0636 68.262 93.2184 69.65 91.9928 70.6465C90.7672 71.643 89.2358 72.1871 87.6562 72.1875H84.2188V74.7656C84.2142 77.5885 83.143 80.3053 81.2197 82.3715C79.2964 84.4378 76.6633 85.7008 73.848 85.9074H36.152C33.3367 85.7008 30.7036 84.4378 28.7803 82.3715C26.857 80.3053 25.7858 77.5885 25.7812 74.7656V72.1875H22.3438C20.5204 72.1875 18.7717 71.4632 17.4824 70.1739C16.1931 68.8845 15.4688 67.1359 15.4688 65.3125C15.4688 63.4891 16.1931 61.7405 17.4824 60.4511C18.7717 59.1618 20.5204 58.4375 22.3438 58.4375V60.1563C22.3438 60.6121 22.5248 61.0493 22.8472 61.3716C23.1695 61.6939 23.6067 61.875 24.0625 61.875C24.5183 61.875 24.9555 61.6939 25.2778 61.3716C25.6002 61.0493 25.7812 60.6121 25.7812 60.1563V53.2813C25.7812 52.8254 25.6002 52.3882 25.2778 52.0659C24.9555 51.7436 24.5183 51.5625 24.0625 51.5625C23.6067 51.5625 23.1695 51.7436 22.8472 52.0659C22.5248 52.3882 22.3438 52.8254 22.3438 53.2813V55C19.6087 55 16.9857 56.0865 15.0517 58.0205C13.1177 59.9544 12.0313 62.5775 12.0312 65.3125C12.0313 68.0475 13.1177 70.6706 15.0517 72.6045C16.9857 74.5385 19.6087 75.625 22.3438 75.625H22.3689C22.5845 79.1747 24.085 82.5245 26.59 85.0487C29.0951 87.5729 32.4334 89.0987 35.9814 89.3413H48.125V94.5313C48.125 96.3546 48.8493 98.1033 50.1386 99.3926C51.428 100.682 53.1766 101.406 55 101.406C56.8234 101.406 58.572 100.682 59.8614 99.3926C61.1507 98.1033 61.875 96.3546 61.875 94.5313V89.3439H73.9625L74.0186 89.3402C77.5664 89.0977 80.9046 87.572 83.4096 85.048C85.9147 82.5241 87.4153 79.1745 87.6311 75.625H87.6562C90.0253 75.6244 92.322 74.8082 94.1601 73.3137C95.9983 71.8192 97.2659 69.7374 97.7499 67.4183C98.2339 65.0992 97.9048 62.6841 96.8178 60.5791C95.7308 58.4741 93.9523 56.8075 91.7812 55.8594ZM58.4375 94.5313C58.4375 95.4429 58.0753 96.3173 57.4307 96.9619C56.786 97.6066 55.9117 97.9688 55 97.9688C54.0883 97.9688 53.214 97.6066 52.5693 96.9619C51.9247 96.3173 51.5625 95.4429 51.5625 94.5313V89.3428H58.4375V94.5313Z" fill="#F2F2F2"/>
<path d="M59.203 70.7575C57.9593 71.5897 56.4965 72.034 55.0001 72.034C53.5037 72.034 52.0409 71.5897 50.7972 70.7575C50.6095 70.6297 50.3983 70.5403 50.1758 70.4946C49.9533 70.4488 49.724 70.4476 49.501 70.4911C49.2781 70.5345 49.0659 70.6217 48.8769 70.7476C48.6878 70.8736 48.5256 71.0357 48.3996 71.2247C48.2736 71.4137 48.1864 71.6258 48.1428 71.8487C48.0993 72.0716 48.1004 72.301 48.146 72.5235C48.1917 72.746 48.281 72.9572 48.4087 73.145C48.5365 73.3328 48.7003 73.4934 48.8905 73.6175C50.6983 74.8274 52.8247 75.4734 55.0001 75.4734C57.1755 75.4734 59.3019 74.8274 61.1097 73.6175C61.4841 73.3626 61.7426 72.9702 61.8292 72.5257C61.9159 72.0811 61.8235 71.6204 61.5723 71.2435C61.3211 70.8667 60.9313 70.6043 60.4876 70.5133C60.0439 70.4223 59.5823 70.51 59.203 70.7575Z" fill="#F2F2F2"/>
<path d="M30.9375 65.3125C30.9375 65.7683 31.1186 66.2055 31.4409 66.5278C31.7632 66.8502 32.2004 67.0313 32.6562 67.0313C33.1121 67.0313 33.5493 66.8502 33.8716 66.5278C34.1939 66.2055 34.375 65.7683 34.375 65.3125C34.375 64.8567 34.5561 64.4195 34.8784 64.0972C35.2007 63.7748 35.6379 63.5938 36.0938 63.5938C36.5496 63.5938 36.9868 63.7748 37.3091 64.0972C37.6314 64.4195 37.8125 64.8567 37.8125 65.3125C37.8125 65.7683 37.9936 66.2055 38.3159 66.5278C38.6382 66.8502 39.0754 67.0313 39.5312 67.0313C39.9871 67.0313 40.4243 66.8502 40.7466 66.5278C41.0689 66.2055 41.25 65.7683 41.25 65.3125C41.25 63.945 40.7068 62.6335 39.7398 61.6665C38.7728 60.6995 37.4613 60.1562 36.0938 60.1562C34.7262 60.1562 33.4147 60.6995 32.4477 61.6665C31.4807 62.6335 30.9375 63.945 30.9375 65.3125Z" fill="#F2F2F2"/>
<path d="M70.4688 67.0313C70.9246 67.0313 71.3618 66.8502 71.6841 66.5278C72.0064 66.2055 72.1875 65.7683 72.1875 65.3125C72.1875 64.8567 72.3686 64.4195 72.6909 64.0972C73.0132 63.7748 73.4504 63.5938 73.9062 63.5938C74.3621 63.5938 74.7993 63.7748 75.1216 64.0972C75.4439 64.4195 75.625 64.8567 75.625 65.3125C75.625 65.7683 75.8061 66.2055 76.1284 66.5278C76.4507 66.8502 76.8879 67.0313 77.3438 67.0313C77.7996 67.0313 78.2368 66.8502 78.5591 66.5278C78.8814 66.2055 79.0625 65.7683 79.0625 65.3125C79.0625 63.945 78.5193 62.6335 77.5523 61.6665C76.5853 60.6995 75.2738 60.1562 73.9062 60.1562C72.5387 60.1562 71.2272 60.6995 70.2602 61.6665C69.2932 62.6335 68.75 63.945 68.75 65.3125C68.75 65.7683 68.9311 66.2055 69.2534 66.5278C69.5757 66.8502 70.0129 67.0313 70.4688 67.0313Z" fill="#F2F2F2"/>
<path d="M68.75 49.8438C68.7494 49.3881 68.5681 48.9513 68.2459 48.6291C67.9237 48.3069 67.4869 48.1256 67.0312 48.125H44.7197C44.2639 48.125 43.8267 48.3061 43.5044 48.6284C43.1821 48.9507 43.001 49.3879 43.001 49.8438C43.001 50.2996 43.1821 50.7368 43.5044 51.0591C43.8267 51.3814 44.2639 51.5625 44.7197 51.5625H67.0312C67.4869 51.5619 67.9237 51.3806 68.2459 51.0584C68.5681 50.7362 68.7494 50.2994 68.75 49.8438Z" fill="#F2F2F2"/>
<path d="M16.3647 45.9207C17.5589 47.0736 18.9288 48.0294 20.4231 48.7524C23.1988 50.1231 26.5998 50.9717 30.8236 51.3477C30.8752 51.352 30.9268 51.3541 30.9762 51.3541C31.4193 51.3545 31.8454 51.1838 32.1657 50.8776C32.486 50.5714 32.6756 50.1533 32.695 49.7106C32.7144 49.268 32.5621 48.8349 32.2698 48.5018C31.9776 48.1687 31.568 47.9614 31.1266 47.9231C26.0799 47.4848 22.2406 46.26 19.7141 44.2879C18.3759 43.2637 17.3122 41.924 16.6182 40.3885C15.8555 38.7106 15.4688 36.6867 15.4688 34.375V27.6846C18.645 29.8056 22.3787 30.9376 26.1981 30.9375H36.0938C36.5496 30.9381 36.987 30.7575 37.3097 30.4356C37.6325 30.1137 37.8141 29.6768 37.8147 29.2209C37.8152 28.7651 37.6347 28.3277 37.3128 28.0049C36.9908 27.6822 36.5539 27.5006 36.0981 27.5H26.1981C24.1111 27.5059 22.0437 27.0976 20.1157 26.2988C18.1877 25.5 16.4373 24.3266 14.966 22.8465C14.8066 22.6865 14.6171 22.5596 14.4084 22.4733C14.1996 22.387 13.9759 22.343 13.75 22.3438C13.5243 22.3428 13.3007 22.3873 13.0926 22.4746C12.778 22.604 12.5091 22.8241 12.3201 23.1069C12.1311 23.3897 12.0305 23.7224 12.0313 24.0625V34.375C12.0313 37.1787 12.5211 39.6793 13.4879 41.8086C14.1822 43.3466 15.1578 44.7413 16.3647 45.9207Z" fill="#F2F2F2"/>
<path d="M37.8447 51.5625C38.794 51.5625 39.5635 50.793 39.5635 49.8438C39.5635 48.8945 38.794 48.125 37.8447 48.125C36.8955 48.125 36.126 48.8945 36.126 49.8438C36.126 50.793 36.8955 51.5625 37.8447 51.5625Z" fill="#F2F2F2"/>
<path d="M42.9709 92.9349H35.9715L35.8505 92.9521C32.5825 93.4356 29.596 95.0746 27.4332 97.5718C25.2703 100.069 24.0744 103.259 24.0625 106.562V108.281C24.0625 108.737 24.2436 109.174 24.5659 109.497C24.8882 109.819 25.3254 110 25.7812 110C26.2371 110 26.6743 109.819 26.9966 109.497C27.3189 109.174 27.5 108.737 27.5 108.281V106.562C27.5084 104.106 28.3902 101.732 29.9878 99.8649C31.5853 97.9982 33.7945 96.7603 36.2207 96.3724H42.9709C43.4267 96.3724 43.8639 96.1914 44.1862 95.869C44.5086 95.5467 44.6896 95.1095 44.6896 94.6537C44.6896 94.1978 44.5086 93.7607 44.1862 93.4383C43.8639 93.116 43.4267 92.9349 42.9709 92.9349Z" fill="#F2F2F2"/>
<path d="M74.1495 92.9521L74.0286 92.9349H67.0292C66.5733 92.9349 66.1362 93.116 65.8138 93.4383C65.4915 93.7607 65.3104 94.1978 65.3104 94.6537C65.3104 95.1095 65.4915 95.5467 65.8138 95.869C66.1362 96.1914 66.5733 96.3724 67.0292 96.3724H73.7793C76.2055 96.7603 78.4148 97.9982 80.0123 99.8649C81.6099 101.732 82.4916 104.106 82.5001 106.562V108.281C82.5001 108.737 82.6812 109.174 83.0035 109.497C83.3258 109.819 83.763 110 84.2188 110C84.6747 110 85.1118 109.819 85.4342 109.497C85.7565 109.174 85.9376 108.737 85.9376 108.281V106.562C85.9256 103.259 84.7297 100.069 82.5669 97.5718C80.404 95.0746 77.4176 93.4356 74.1495 92.9521Z" fill="#F2F2F2"/>
<path d="M42.2519 30.7175L84.2188 54.2874V60.1562C84.2188 60.6121 84.3999 61.0493 84.7223 61.3716C85.0446 61.6939 85.4818 61.875 85.9376 61.875C86.3934 61.875 86.8306 61.6939 87.1529 61.3716C87.4753 61.0493 87.6563 60.6121 87.6563 60.1562V17.0156C89.0146 16.7377 90.2855 16.1355 91.3607 15.2603C92.4359 14.3851 93.2835 13.2629 93.8314 11.9894C94.3792 10.7158 94.6109 9.32871 94.5069 7.94624C94.4028 6.56378 93.966 5.22698 93.2337 4.04981C92.409 2.72755 91.241 1.65385 89.8542 0.943165C89.6127 0.817337 89.3444 0.751737 89.0722 0.751954C88.6864 0.752215 88.3119 0.882117 88.0088 1.1208C87.7057 1.35948 87.4916 1.69309 87.4009 2.06807C87.3102 2.44304 87.3481 2.83762 87.5086 3.18844C87.6691 3.53927 87.9428 3.82598 88.2858 4.00254C89.1015 4.41978 89.7912 5.04681 90.2841 5.81912C90.777 6.59142 91.0552 7.4811 91.0901 8.39661C91.125 9.31213 90.9153 10.2204 90.4827 11.028C90.05 11.8356 89.41 12.5133 88.6285 12.9914C87.847 13.4696 86.9522 13.7308 86.0362 13.7483C85.1202 13.7659 84.216 13.539 83.4168 13.0911C82.6176 12.6432 81.9521 11.9904 81.4889 11.2C81.0257 10.4095 80.7815 9.50993 80.7813 8.59375C80.7813 8.50975 80.7835 8.43262 80.7856 8.36172C80.7944 7.91316 80.6275 7.47894 80.3204 7.15181C80.0134 6.82468 79.5907 6.63056 79.1424 6.61093C78.6942 6.5913 78.2561 6.7477 77.9216 7.04673C77.5872 7.34576 77.3829 7.76372 77.3524 8.21133C77.346 8.33809 77.3438 8.46699 77.3438 8.59375C77.3431 9.30349 77.4297 10.0106 77.6017 10.6992L42.3479 27.6702C42.0647 27.8065 41.8242 28.0179 41.6527 28.2815C41.4813 28.545 41.3854 28.8505 41.3755 29.1647C41.3656 29.4789 41.4421 29.7898 41.5966 30.0636C41.7511 30.3374 41.9778 30.5636 42.2519 30.7175ZM79.0976 13.7943C79.3326 14.1027 79.588 14.3951 79.862 14.6695C81.0502 15.8653 82.5665 16.6818 84.2188 17.0156V26.5354L69.6309 18.352L79.0976 13.7943ZM54.8293 25.4768L58.3022 27.4246C58.5581 27.5683 58.8466 27.6439 59.1401 27.6439H59.1423C59.5226 27.6441 59.8923 27.518 60.1934 27.2856C60.4944 27.0531 60.7099 26.7273 60.8059 26.3592C60.902 25.9912 60.8732 25.6017 60.7242 25.2517C60.5752 24.9018 60.3142 24.6111 59.9823 24.4254L58.611 23.6562L65.8484 20.1723L84.2188 30.4767V38.0207L71.9749 31.1523C71.778 31.042 71.5612 30.9716 71.3371 30.945C71.1129 30.9185 70.8857 30.9363 70.6685 30.9976C70.4512 31.0588 70.2481 31.1623 70.0709 31.302C69.8936 31.4417 69.7456 31.615 69.6352 31.8119C69.5249 32.0088 69.4545 32.2256 69.4279 32.4497C69.4014 32.6739 69.4192 32.9011 69.4805 33.1183C69.5417 33.3356 69.6452 33.5387 69.7849 33.7159C69.9246 33.8932 70.0979 34.0412 70.2948 34.1516L84.2188 41.9622V50.3448L46.8124 29.3361L54.8293 25.4768Z" fill="#F2F2F2"/>
<path d="M65.9785 27.79C65.6316 27.5957 65.2281 27.5276 64.8366 27.5974C64.4452 27.6673 64.09 27.8707 63.8317 28.173C63.5734 28.4753 63.4279 28.8578 63.42 29.2554C63.4121 29.6529 63.5423 30.0409 63.7884 30.3532C64.0345 30.6656 64.3813 30.8829 64.7696 30.9682C65.158 31.0535 65.564 31.0015 65.9183 30.8211C66.2726 30.6407 66.5535 30.343 66.7129 29.9787C66.8724 29.6145 66.9006 29.2062 66.7928 28.8234C66.7318 28.6061 66.6285 28.4028 66.4888 28.2255C66.349 28.0482 66.1756 27.9002 65.9785 27.79Z" fill="#F2F2F2"/>
<path d="M82.4828 4.36774C82.7851 4.36771 83.0821 4.28794 83.3437 4.13647C83.6054 3.98501 83.8224 3.76721 83.973 3.50506C84.1236 3.24291 84.2024 2.94567 84.2014 2.64336C84.2004 2.34104 84.1197 2.04433 83.9674 1.78317C83.8153 1.52385 83.5981 1.30875 83.3373 1.15915C83.0766 1.00955 82.7813 0.930644 82.4807 0.930237C82.1784 0.930289 81.8814 1.01007 81.6198 1.16152C81.3582 1.31297 81.1412 1.53074 80.9906 1.79286C80.84 2.05498 80.7613 2.35218 80.7622 2.65446C80.7632 2.95675 80.8439 3.25344 80.9961 3.51459C81.1481 3.77396 81.3653 3.98912 81.6261 4.13876C81.8868 4.2884 82.1822 4.36733 82.4828 4.36774Z" fill="#F2F2F2"/>
<path d="M85.9375 68.75C86.8867 68.75 87.6562 67.9805 87.6562 67.0312C87.6562 66.082 86.8867 65.3125 85.9375 65.3125C84.9883 65.3125 84.2188 66.082 84.2188 67.0312C84.2188 67.9805 84.9883 68.75 85.9375 68.75Z" fill="#F2F2F2"/>
</svg>
